<svg width="152" height="215" viewBox="0 0 152 215" fill="none" xmlns="http://www.w3.org/2000/svg">
<path d="M0.25 44.25H151.75V205C151.75 210.385 147.385 214.75 142 214.75H10C4.61522 214.75 0.25 210.385 0.25 205V44.25Z" fill="white" stroke="#D9D9D9" stroke-width="0.5"/>
<path d="M0 10C0 4.47715 4.47715 0 10 0H142C147.523 0 152 4.47715 152 10V44H0V10Z" fill="#D9D9D9"/>
<path d="M59.0218 17.51H60.6418V19.535C60.6418 22.97 59.4418 26.195 56.8168 27.485L55.6168 25.88C57.9568 24.785 59.0218 22.115 59.0218 19.535V17.51ZM59.4268 17.51H61.0168V19.535C61.0168 22.025 62.0068 24.56 64.2268 25.64L63.0268 27.23C60.5218 25.955 59.4268 22.865 59.4268 19.535V17.51ZM64.7818 16.445H66.7918V30.335H64.7818V16.445ZM66.3418 21.785H68.8018V23.45H66.3418V21.785ZM76.7206 19.505H80.2006V21.11H76.7206V19.505ZM73.5406 17.015C75.6256 17.015 77.2006 18.41 77.2006 20.33C77.2006 22.265 75.6256 23.645 73.5406 23.645C71.4406 23.645 69.8656 22.265 69.8656 20.33C69.8656 18.41 71.4406 17.015 73.5406 17.015ZM73.5406 18.68C72.5206 18.68 71.7706 19.295 71.7706 20.33C71.7706 21.365 72.5206 21.995 73.5406 21.995C74.5606 21.995 75.2956 21.365 75.2956 20.33C75.2956 19.295 74.5606 18.68 73.5406 18.68ZM79.3306 16.445H81.3256V23.915H79.3306V16.445ZM72.1006 24.515H74.0806V25.835H79.3456V24.515H81.3256V30.185H72.1006V24.515ZM74.0806 27.365V28.595H79.3456V27.365H74.0806ZM86.6194 18.635H88.1944V20.195C88.1944 23.33 86.8744 26.525 84.3244 27.725L83.1994 26.15C85.4944 25.07 86.6194 22.475 86.6194 20.195V18.635ZM87.0394 18.635H88.6144V20.195C88.6144 22.295 89.6944 24.755 91.9744 25.805L90.8794 27.38C88.3294 26.195 87.0394 23.15 87.0394 20.195V18.635ZM83.7394 17.78H91.3594V19.415H83.7394V17.78ZM92.3794 16.445H94.3894V30.335H92.3794V16.445ZM93.9394 21.74H96.3994V23.39H93.9394V21.74Z" fill="white"/>
<path d="M11.252 65.024H12.068V66.968C12.068 69.368 10.772 71.708 9.056 72.62L8.444 71.828C10.016 71.036 11.252 68.948 11.252 66.968V65.024ZM11.432 65.024H12.236V66.968C12.236 68.876 13.448 70.856 14.984 71.624L14.372 72.416C12.692 71.516 11.432 69.296 11.432 66.968V65.024ZM15.932 64.088H16.94V74.936H15.932V64.088ZM16.7 68.48H18.716V69.32H16.7V68.48ZM24.4871 66.668H27.4031V67.496H24.4871V66.668ZM21.9911 64.58C23.6111 64.58 24.7871 65.612 24.7871 67.1C24.7871 68.588 23.6111 69.608 21.9911 69.608C20.3711 69.608 19.1951 68.588 19.1951 67.1C19.1951 65.612 20.3711 64.58 21.9911 64.58ZM21.9911 65.42C20.9231 65.42 20.1551 66.104 20.1551 67.1C20.1551 68.084 20.9231 68.78 21.9911 68.78C23.0591 68.78 23.8271 68.084 23.8271 67.1C23.8271 66.104 23.0591 65.42 21.9911 65.42ZM26.9591 64.088H27.9551V69.908H26.9591V64.088ZM21.0071 70.448H22.0031V71.816H26.9711V70.448H27.9551V74.792H21.0071V70.448ZM22.0031 72.608V73.988H26.9711V72.608H22.0031ZM32.1541 65.636H32.9461V67.4C32.9461 69.656 31.5661 71.984 29.8741 72.848L29.2981 72.056C30.8461 71.3 32.1541 69.236 32.1541 67.4V65.636ZM32.3341 65.636H33.1261V67.4C33.1261 69.116 34.3501 71.048 35.9221 71.792L35.3581 72.584C33.6421 71.732 32.3341 69.548 32.3341 67.4V65.636ZM29.6821 65.192H35.5261V66.032H29.6821V65.192ZM36.8101 64.088H37.8181V74.936H36.8101V64.088ZM37.5781 68.468H39.5941V69.308H37.5781V68.468ZM42.6922 69.248H52.4962V70.076H42.6922V69.248ZM43.9282 67.412H51.3562V68.216H43.9282V67.412ZM43.9282 64.52H51.2722V65.336H44.9122V67.796H43.9282V64.52ZM47.5762 71.012C49.8922 71.012 51.2962 71.72 51.2962 72.968C51.2962 74.216 49.8922 74.912 47.5762 74.912C45.2602 74.912 43.8562 74.216 43.8562 72.968C43.8562 71.72 45.2602 71.012 47.5762 71.012ZM47.5762 71.78C45.8842 71.78 44.8642 72.212 44.8642 72.968C44.8642 73.712 45.8842 74.132 47.5762 74.132C49.2802 74.132 50.2882 73.712 50.2882 72.968C50.2882 72.212 49.2802 71.78 47.5762 71.78ZM53.1193 70.052H62.9593V70.868H53.1193V70.052ZM54.3673 64.364H61.6873V66.992H55.3753V68.456H54.3913V66.26H60.7153V65.144H54.3673V64.364ZM54.3913 68.132H61.9273V68.912H54.3913V68.132ZM57.5353 68.54H58.5312V70.46H57.5353V68.54ZM54.2113 71.696H61.7593V74.84H60.7633V72.512H54.2113V71.696ZM63.5583 69.248H73.3623V70.052H63.5583V69.248ZM68.4543 70.988C70.7703 70.988 72.1743 71.708 72.1743 72.956C72.1743 74.204 70.7703 74.912 68.4543 74.912C66.1383 74.912 64.7343 74.204 64.7343 72.956C64.7343 71.708 66.1383 70.988 68.4543 70.988ZM68.4543 71.78C66.7623 71.78 65.7423 72.2 65.7423 72.956C65.7423 73.7 66.7623 74.132 68.4543 74.132C70.1583 74.132 71.1663 73.7 71.1663 72.956C71.1663 72.2 70.1583 71.78 68.4543 71.78ZM67.8183 65.072H68.7063V65.396C68.7063 67.136 66.7143 68.324 64.4703 68.588L64.1103 67.808C66.0543 67.592 67.8183 66.62 67.8183 65.396V65.072ZM68.2383 65.072H69.1143V65.396C69.1143 66.62 70.8783 67.592 72.8223 67.808L72.4623 68.588C70.2183 68.324 68.2383 67.136 68.2383 65.396V65.072ZM64.4583 64.64H72.4863V65.444H64.4583V64.64ZM78.9054 64.268C81.2934 64.268 82.7214 64.94 82.7214 66.152C82.7214 67.364 81.2934 68.036 78.9054 68.036C76.5054 68.036 75.0894 67.364 75.0894 66.152C75.0894 64.94 76.5054 64.268 78.9054 64.268ZM78.9054 65.024C77.1294 65.024 76.1094 65.432 76.1094 66.152C76.1094 66.872 77.1294 67.28 78.9054 67.28C80.6694 67.28 81.6894 66.872 81.6894 66.152C81.6894 65.432 80.6694 65.024 78.9054 65.024ZM73.9974 68.756H83.8014V69.56H73.9974V68.756ZM75.1854 70.484H82.5534V72.932H76.1934V74.252H75.2094V72.212H81.5694V71.252H75.1854V70.484ZM75.2094 74.036H82.8774V74.816H75.2094V74.036ZM87.2234 72.704H97.0514V73.532H87.2234V72.704ZM91.5914 70.076H92.5754V72.98H91.5914V70.076ZM91.5674 64.808H92.4314V65.648C92.4314 67.964 90.2114 69.752 88.0274 70.208L87.6074 69.38C89.5154 69.032 91.5674 67.436 91.5674 65.648V64.808ZM91.7474 64.808H92.6114V65.648C92.6114 67.448 94.6754 69.032 96.5834 69.38L96.1514 70.208C93.9674 69.752 91.7474 67.964 91.7474 65.648V64.808ZM100.531 65.636H101.335V67.4C101.335 69.692 99.9545 71.996 98.2265 72.848L97.6505 72.056C99.2225 71.312 100.531 69.272 100.531 67.4V65.636ZM100.723 65.636H101.527V67.4C101.527 69.236 102.835 71.108 104.431 71.792L103.867 72.584C102.115 71.768 100.723 69.656 100.723 67.4V65.636ZM98.0105 65.192H104.071V66.032H98.0105V65.192ZM105.535 64.088H106.531V74.936H105.535V64.088ZM115.446 64.088H116.442V74.936H115.446V64.088ZM116.202 68.54H118.218V69.38H116.202V68.54ZM108.042 65.816H114.438V66.632H108.042V65.816ZM111.282 67.532C112.818 67.532 113.922 68.564 113.922 70.028C113.922 71.492 112.818 72.524 111.282 72.524C109.758 72.524 108.642 71.492 108.642 70.028C108.642 68.564 109.758 67.532 111.282 67.532ZM111.282 68.36C110.298 68.36 109.59 69.044 109.59 70.028C109.59 71 110.298 71.696 111.282 71.696C112.266 71.696 112.974 71 112.974 70.028C112.974 69.044 112.266 68.36 111.282 68.36ZM110.766 64.22H111.762V66.188H110.766V64.22ZM126.425 64.1H127.433V72.044H126.425V64.1ZM120.461 73.88H127.757V74.696H120.461V73.88ZM120.461 71.312H121.445V74.264H120.461V71.312ZM121.361 64.688H122.189V65.792C122.189 67.904 120.989 69.752 119.165 70.496L118.649 69.692C120.281 69.056 121.361 67.472 121.361 65.792V64.688ZM121.541 64.688H122.357V65.792C122.357 67.424 123.449 68.9 125.069 69.488L124.541 70.292C122.741 69.596 121.541 67.856 121.541 65.792V64.688ZM131.743 69.812H141.571V70.628H131.743V69.812ZM136.231 70.22H137.227V72.716H136.231V70.22ZM132.991 73.88H140.479V74.696H132.991V73.88ZM132.991 71.756H133.975V74.192H132.991V71.756ZM133.051 64.424H134.035V65.804H139.279V64.424H140.275V68.768H133.051V64.424ZM134.035 66.584V67.964H139.279V66.584H134.035ZM9.896 104.52H10.88V105.876H16.124V104.52H17.12V108.852H9.896V104.52ZM10.88 106.668V108.048H16.124V106.668H10.88ZM8.588 110.004H18.392V110.82H8.588V110.004ZM13.004 108.384H13.988V110.364H13.004V108.384ZM9.86 113.88H17.312V114.696H9.86V113.88ZM9.86 111.696H10.856V114.156H9.86V111.696ZM22.6288 114H21.5209L24.7254 105.273H25.8163L29.0209 114H27.9129L25.305 106.653H25.2368L22.6288 114ZM23.0379 110.591H27.5038V111.528H23.0379V110.591ZM29.7803 114V105.273H32.7291C33.4138 105.273 33.9734 105.396 34.4081 105.643C34.8456 105.888 35.1695 106.219 35.3797 106.636C35.5899 107.054 35.695 107.52 35.695 108.034C35.695 108.548 35.5899 109.016 35.3797 109.436C35.1723 109.857 34.8513 110.192 34.4166 110.442C33.982 110.689 33.4251 110.812 32.7462 110.812H30.6325V109.875H32.7121C33.1808 109.875 33.5572 109.794 33.8413 109.632C34.1254 109.47 34.3314 109.251 34.4592 108.976C34.5899 108.697 34.6553 108.384 34.6553 108.034C34.6553 107.685 34.5899 107.372 34.4592 107.097C34.3314 106.821 34.124 106.605 33.8371 106.449C33.5501 106.29 33.1695 106.21 32.695 106.21H30.8371V114H29.7803ZM36.7974 114V105.273H39.7463C40.431 105.273 40.9906 105.396 41.4253 105.643C41.8628 105.888 42.1866 106.219 42.3969 106.636C42.6071 107.054 42.7122 107.52 42.7122 108.034C42.7122 108.548 42.6071 109.016 42.3969 109.436C42.1895 109.857 41.8685 110.192 41.4338 110.442C40.9991 110.689 40.4423 110.812 39.7634 110.812H37.6497V109.875H39.7293C40.198 109.875 40.5744 109.794 40.8585 109.632C41.1426 109.47 41.3486 109.251 41.4764 108.976C41.6071 108.697 41.6724 108.384 41.6724 108.034C41.6724 107.685 41.6071 107.372 41.4764 107.097C41.3486 106.821 41.1412 106.605 40.8543 106.449C40.5673 106.29 40.1866 106.21 39.7122 106.21H37.8543V114H36.7974ZM47.7498 108.3H49.8018V109.128H47.7498V108.3ZM51.6138 104.088H52.5738V114.936H51.6138V104.088ZM49.4658 104.316H50.4138V114.396H49.4658V104.316ZM45.7938 104.988C47.1978 104.988 48.1098 106.44 48.1098 108.768C48.1098 111.096 47.1978 112.548 45.7938 112.548C44.3898 112.548 43.4898 111.096 43.4898 108.768C43.4898 106.44 44.3898 104.988 45.7938 104.988ZM45.7938 105.912C44.9418 105.912 44.4018 107.016 44.4018 108.768C44.4018 110.52 44.9418 111.624 45.7938 111.624C46.6578 111.624 47.1978 110.52 47.1978 108.768C47.1978 107.016 46.6578 105.912 45.7938 105.912ZM59.2089 107.76H62.2329V108.576H59.2089V107.76ZM56.5929 105.024H57.4089V106.956C57.4089 109.392 56.1249 111.72 54.4089 112.644L53.7729 111.852C55.3689 111.06 56.5929 108.972 56.5929 106.956V105.024ZM56.7849 105.024H57.5889V106.956C57.5889 108.936 58.8129 110.904 60.3849 111.648L59.7969 112.452C58.0449 111.564 56.7849 109.332 56.7849 106.956V105.024ZM61.7409 104.076H62.7249V114.948H61.7409V104.076ZM74.9309 104.088H75.9269V109.62H74.9309V104.088ZM71.4989 104.616H72.5789C72.5789 107.352 70.6949 109.104 67.5269 109.872L67.1789 109.056C69.9869 108.408 71.4989 106.98 71.4989 105.108V104.616ZM67.7429 104.616H71.9549V105.432H67.7429V104.616ZM72.1949 105.648H75.0989V106.44H72.1949V105.648ZM72.0989 107.724H75.0389V108.504H72.0989V107.724ZM68.9429 110.124H75.9269V112.788H69.9629V114.516H68.9789V112.02H74.9429V110.928H68.9429V110.124ZM68.9789 114.036H76.2869V114.828H68.9789V114.036ZM85.694 104.088H86.654V114.936H85.694V104.088ZM81.746 107.976H83.822V108.804H81.746V107.976ZM83.522 104.34H84.458V114.384H83.522V104.34ZM79.658 105.768H80.426V107.148C80.426 109.524 79.514 111.768 77.918 112.776L77.306 112.032C78.818 111.12 79.658 109.14 79.658 107.148V105.768ZM79.862 105.768H80.63V107.148C80.63 109.032 81.446 110.916 82.934 111.78L82.322 112.512C80.738 111.552 79.862 109.416 79.862 107.148V105.768ZM77.606 105.348H82.562V106.176H77.606V105.348ZM88.8971 107.628H94.1291V108.444H88.8971V107.628ZM90.9851 108.12H91.9811V110.292H90.9851V108.12ZM88.8971 104.796H94.0571V105.612H89.8931V107.988H88.8971V104.796ZM95.7611 104.088H96.7571V112.2H95.7611V104.088ZM89.7491 113.88H97.1171V114.696H89.7491V113.88ZM89.7491 111.672H90.7331V114.228H89.7491V111.672ZM88.0691 110.832L87.9371 110.016C90.0251 110.016 92.6651 109.968 94.8971 109.704L94.9571 110.436C92.6651 110.772 90.0971 110.832 88.0691 110.832ZM109.359 104.088H110.319V114.936H109.359V104.088ZM107.643 108.384H109.719V109.2H107.643V108.384ZM106.959 104.316H107.907V114.396H106.959V104.316ZM101.487 105.336H105.627V112.032H101.487V105.336ZM104.691 106.128H102.423V111.24H104.691V106.128ZM115.934 109.488H116.93V111.132H115.934V109.488ZM111.542 108.9H121.334V109.668H111.542V108.9ZM115.946 104.016H116.93V105.336H115.946V104.016ZM115.898 105.432H116.774V105.6C116.774 107.304 114.746 108.216 112.346 108.42L112.058 107.652C114.194 107.52 115.898 106.764 115.898 105.6V105.432ZM116.102 105.432H116.978V105.6C116.978 106.764 118.682 107.52 120.806 107.652L120.518 108.42C118.118 108.216 116.102 107.304 116.102 105.6V105.432ZM112.538 105.036H120.338V105.792H112.538V105.036ZM112.718 110.652H120.086V113.04H113.726V114.348H112.742V112.332H119.102V111.408H112.718V110.652ZM112.742 114.06H120.41V114.816H112.742V114.06ZM121.969 109.788H131.773V110.604H121.969V109.788ZM123.241 113.88H130.693V114.696H123.241V113.88ZM123.241 111.552H124.237V114.132H123.241V111.552ZM126.877 104.448C129.193 104.448 130.693 105.264 130.693 106.62C130.693 107.964 129.193 108.78 126.877 108.78C124.549 108.78 123.061 107.964 123.061 106.62C123.061 105.264 124.549 104.448 126.877 104.448ZM126.877 105.264C125.173 105.264 124.081 105.768 124.081 106.62C124.081 107.472 125.173 107.976 126.877 107.976C128.581 107.976 129.673 107.472 129.673 106.62C129.673 105.768 128.581 105.264 126.877 105.264ZM16.496 124.088H17.492V134.936H16.496V124.088ZM13.316 125.252H14.3C14.3 128.396 12.884 131.144 9.26 132.92L8.732 132.116C11.864 130.604 13.316 128.3 13.316 125.42V125.252ZM9.224 125.252H13.748V126.068H9.224V125.252ZM23.2871 125.108H24.1751V125.432C24.1751 127.268 22.2191 128.564 19.9991 128.9L19.6271 128.096C21.5471 127.844 23.2871 126.764 23.2871 125.432V125.108ZM23.7071 125.108H24.5831V125.432C24.5831 126.752 26.3351 127.844 28.2551 128.096L27.8711 128.9C25.6631 128.564 23.7071 127.268 23.7071 125.432V125.108ZM19.9271 124.616H27.9551V125.42H19.9271V124.616ZM20.2991 133.88H27.7511V134.696H20.2991V133.88ZM20.2991 131.636H21.2951V134.204H20.2991V131.636ZM19.0271 129.944H28.8671V130.748H19.0271V129.944ZM23.4311 128.144H24.4151V130.268H23.4311V128.144ZM34.9051 125.024H35.7211V126.968C35.7211 129.368 34.4251 131.708 32.7091 132.62L32.0971 131.828C33.6691 131.036 34.9051 128.948 34.9051 126.968V125.024ZM35.0851 125.024H35.8891V126.968C35.8891 128.876 37.1011 130.856 38.6371 131.624L38.0251 132.416C36.3451 131.516 35.0851 129.296 35.0851 126.968V125.024ZM39.5851 124.088H40.5931V134.936H39.5851V124.088ZM40.3531 128.48H42.3691V129.32H40.3531V128.48ZM48.1402 126.668H51.0562V127.496H48.1402V126.668ZM45.6442 124.58C47.2642 124.58 48.4402 125.612 48.4402 127.1C48.4402 128.588 47.2642 129.608 45.6442 129.608C44.0242 129.608 42.8482 128.588 42.8482 127.1C42.8482 125.612 44.0242 124.58 45.6442 124.58ZM45.6442 125.42C44.5762 125.42 43.8082 126.104 43.8082 127.1C43.8082 128.084 44.5762 128.78 45.6442 128.78C46.7122 128.78 47.4802 128.084 47.4802 127.1C47.4802 126.104 46.7122 125.42 45.6442 125.42ZM50.6122 124.088H51.6082V129.908H50.6122V124.088ZM44.6602 130.448H45.6562V131.816H50.6242V130.448H51.6082V134.792H44.6602V130.448ZM45.6562 132.608V133.988H50.6242V132.608H45.6562ZM55.8073 125.636H56.5993V127.4C56.5993 129.656 55.2193 131.984 53.5273 132.848L52.9513 132.056C54.4993 131.3 55.8073 129.236 55.8073 127.4V125.636ZM55.9873 125.636H56.7793V127.4C56.7793 129.116 58.0033 131.048 59.5753 131.792L59.0113 132.584C57.2953 131.732 55.9873 129.548 55.9873 127.4V125.636ZM53.3353 125.192H59.1793V126.032H53.3353V125.192ZM60.4633 124.088H61.4713V134.936H60.4633V124.088ZM61.2313 128.468H63.2473V129.308H61.2313V128.468ZM71.4573 127.148H74.5773V127.964H71.4573V127.148ZM74.2653 124.1H75.2613V132.128H74.2653V124.1ZM68.2893 133.88H75.5253V134.696H68.2893V133.88ZM68.2893 131.348H69.2853V134.3H68.2893V131.348ZM66.8733 124.808H67.8573V126.728H70.7973V124.808H71.7693V130.28H66.8733V124.808ZM67.8573 127.508V129.464H70.7973V127.508H67.8573ZM77.2644 125.672H86.0724V126.488H77.2644V125.672ZM76.7844 132.848H86.6124V133.676H76.7844V132.848ZM81.1884 131.132H82.1724V133.172H81.1884V131.132ZM81.6684 127.22C83.8644 127.22 85.2204 127.976 85.2204 129.284C85.2204 130.592 83.8644 131.348 81.6684 131.348C79.4844 131.348 78.1284 130.592 78.1284 129.284C78.1284 127.976 79.4844 127.22 81.6684 127.22ZM81.6684 128C80.0964 128 79.1244 128.48 79.1244 129.284C79.1244 130.088 80.0964 130.556 81.6684 130.556C83.2524 130.556 84.2124 130.088 84.2124 129.284C84.2124 128.48 83.2524 128 81.6684 128ZM81.1884 124.268H82.1724V126.176H81.1884V124.268ZM87.2234 132.776H97.0514V133.604H87.2234V132.776ZM91.6154 130.448H92.6114V133.124H91.6154V130.448ZM88.4114 124.892H95.8394V128.18H89.4314V130.352H88.4474V127.376H94.8554V125.696H88.4114V124.892ZM88.4474 129.932H96.0914V130.748H88.4474V129.932ZM9.848 144.592H16.832V145.408H9.848V144.592ZM8.6 148.48H18.428V149.296H8.6V148.48ZM13.004 149.032H13.988V151.588H13.004V149.032ZM16.184 144.592H17.156V145.396C17.156 146.296 17.156 147.388 16.796 148.876L15.824 148.756C16.184 147.304 16.184 146.272 16.184 145.396V144.592ZM9.62 151.264H17.228V154.936H16.232V152.08H9.62V151.264ZM23.3111 147.964H25.3871V148.792H23.3111V147.964ZM21.2831 145.108H22.0631V147.172C22.0631 149.44 21.1151 151.636 19.5311 152.608L18.9071 151.852C20.3951 150.976 21.2831 149.032 21.2831 147.172V145.108ZM21.4751 145.108H22.2431V147.136C22.2431 148.876 23.0591 150.724 24.4871 151.588L23.9111 152.368C22.3511 151.408 21.4751 149.248 21.4751 147.136V145.108ZM27.2951 144.088H28.2551V154.936H27.2951V144.088ZM25.0991 144.316H26.0351V154.396H25.0991V144.316ZM32.1781 145.936H32.9941V146.404C32.9941 148.288 31.7941 149.872 29.9821 150.484L29.5021 149.704C31.0981 149.188 32.1781 147.868 32.1781 146.404V145.936ZM32.3581 145.936H33.1741V146.404C33.1741 147.748 34.2901 148.96 35.8861 149.428L35.4301 150.208C33.6061 149.644 32.3581 148.18 32.3581 146.404V145.936ZM29.7781 145.396H35.5621V146.2H29.7781V145.396ZM32.1781 144.04H33.1741V145.684H32.1781V144.04ZM35.2381 147.172H37.6861V148H35.2381V147.172ZM37.3981 144.088H38.3941V150.652H37.3981V144.088ZM34.8301 150.94C37.0741 150.94 38.4421 151.672 38.4421 152.932C38.4421 154.18 37.0741 154.912 34.8301 154.912C32.5741 154.912 31.2061 154.18 31.2061 152.932C31.2061 151.672 32.5741 150.94 34.8301 150.94ZM34.8301 151.72C33.1861 151.72 32.2021 152.164 32.2021 152.932C32.2021 153.688 33.1861 154.132 34.8301 154.132C36.4621 154.132 37.4581 153.688 37.4581 152.932C37.4581 152.164 36.4621 151.72 34.8301 151.72ZM44.3092 148.3H46.3612V149.128H44.3092V148.3ZM48.1732 144.088H49.1332V154.936H48.1732V144.088ZM46.0252 144.316H46.9732V154.396H46.0252V144.316ZM42.3532 144.988C43.7572 144.988 44.6692 146.44 44.6692 148.768C44.6692 151.096 43.7572 152.548 42.3532 152.548C40.9492 152.548 40.0492 151.096 40.0492 148.768C40.0492 146.44 40.9492 144.988 42.3532 144.988ZM42.3532 145.912C41.5012 145.912 40.9612 147.016 40.9612 148.768C40.9612 150.52 41.5012 151.624 42.3532 151.624C43.2172 151.624 43.7572 150.52 43.7572 148.768C43.7572 147.016 43.2172 145.912 42.3532 145.912ZM61.0153 144.1H62.0233V152.044H61.0153V144.1ZM55.0513 153.88H62.3473V154.696H55.0513V153.88ZM55.0513 151.312H56.0353V154.264H55.0513V151.312ZM55.9513 144.688H56.7793V145.792C56.7793 147.904 55.5793 149.752 53.7553 150.496L53.2393 149.692C54.8713 149.056 55.9513 147.472 55.9513 145.792V144.688ZM56.1313 144.688H56.9473V145.792C56.9473 147.424 58.0393 148.9 59.6593 149.488L59.1313 150.292C57.3313 149.596 56.1313 147.856 56.1313 145.792V144.688ZM64.6023 145.168H71.5863V145.996H64.6023V145.168ZM63.5703 152.596H73.3743V153.424H63.5703V152.596ZM67.3743 148.72H68.3703V153.004H67.3743V148.72ZM71.2143 145.168H72.1983V146.248C72.1983 147.592 72.1983 149.08 71.8023 151.276L70.8063 151.144C71.2143 149.068 71.2143 147.544 71.2143 146.248V145.168ZM77.0934 147.76H78.1014V149.56H77.0934V147.76ZM81.9054 144.088H82.9014V150.34H81.9054V144.088ZM74.1894 150.076L74.0454 149.272C76.0254 149.272 78.7254 149.248 81.0174 148.912L81.0894 149.62C78.7254 150.04 76.1214 150.076 74.1894 150.076ZM75.0174 147.256H80.2254V148.06H75.0174V147.256ZM75.0174 144.628H80.1294V145.444H76.0134V147.568H75.0174V144.628ZM75.7854 150.82H76.7814V151.96H81.9174V150.82H82.9014V154.792H75.7854V150.82ZM76.7814 152.74V153.988H81.9174V152.74H76.7814ZM92.3324 144.088H93.3284V154.936H92.3324V144.088ZM85.1324 145.144H86.1164V151.864H85.1324V145.144ZM85.1324 151.276H86.0204C87.6644 151.276 89.3804 151.156 91.2164 150.772L91.3364 151.624C89.4524 152.008 87.7364 152.14 86.0204 152.14H85.1324V151.276ZM102.219 144.076H103.227V154.948H102.219V144.076ZM102.987 148.36H105.003V149.2H102.987V148.36ZM95.3435 151.408H96.1955C98.1995 151.408 99.6035 151.336 101.223 151.036L101.331 151.876C99.6635 152.188 98.2355 152.248 96.1955 152.248H95.3435V151.408ZM95.3435 145.132H100.383V145.948H96.3275V151.78H95.3435V145.132ZM106.38 154.068C106.17 154.068 105.989 153.993 105.839 153.842C105.688 153.692 105.613 153.511 105.613 153.301C105.613 153.091 105.688 152.911 105.839 152.76C105.989 152.609 106.17 152.534 106.38 152.534C106.59 152.534 106.771 152.609 106.921 152.76C107.072 152.911 107.147 153.091 107.147 153.301C107.147 153.44 107.112 153.568 107.04 153.685C106.972 153.801 106.88 153.895 106.763 153.966C106.65 154.034 106.522 154.068 106.38 154.068Z" fill="#757575"/>
</svg>
