<svg width="19" height="19" viewBox="0 0 19 19" fill="none" xmlns="http://www.w3.org/2000/svg">
<path d="M9.49997 4.36287C9.94409 4.36287 10.3858 4.64312 10.7223 5.20362L15.4026 13.0047C16.0763 14.1249 15.5562 15.0417 14.25 15.0417H4.74997C3.44372 15.0417 2.9236 14.1241 3.5973 13.0047L8.27764 5.20362C8.6141 4.64312 9.05584 4.36287 9.49997 4.36287ZM9.49997 2.77954C8.47397 2.77954 7.53505 3.36537 6.91993 4.38742L2.23959 12.1901C1.61734 13.2264 1.54926 14.3315 2.05355 15.2222C2.55785 16.1128 3.5411 16.625 4.74997 16.625H14.25C15.4588 16.625 16.4429 16.1136 16.9464 15.223C17.4499 14.3323 17.3826 13.2272 16.7603 12.1909L12.08 4.38979C11.4649 3.36537 10.526 2.77954 9.49997 2.77954Z" fill="white"/>
<path d="M9.50011 13.6958C10.0685 13.6958 10.5293 13.235 10.5293 12.6666C10.5293 12.0982 10.0685 11.6375 9.50011 11.6375C8.93172 11.6375 8.47095 12.0982 8.47095 12.6666C8.47095 13.235 8.93172 13.6958 9.50011 13.6958Z" fill="white"/>
<path d="M10.6876 7.91675C10.6876 7.25966 10.1564 6.72925 9.50009 6.72925C9.30579 6.72947 9.11451 6.77737 8.94304 6.86874C8.77156 6.96011 8.62513 7.09216 8.51658 7.25331C8.40802 7.41446 8.34067 7.59978 8.32043 7.79302C8.30018 7.98626 8.32767 8.18152 8.40046 8.36166C8.83905 9.451 9.50009 11.0834 9.50009 11.0834L10.6013 8.36166C10.6551 8.22471 10.6876 8.07429 10.6876 7.91675Z" fill="white"/>
</svg>
