<svg width="17" height="17" viewBox="0 0 17 17" fill="none" xmlns="http://www.w3.org/2000/svg">
<g clip-path="url(#clip0_211_542)">
<path d="M7.68206 4.71725L7.89985 4.60179C8.44941 4.27927 8.43317 4.054 8.1329 3.51951L6.53837 0.64432C6.06377 -0.212767 6.03057 -0.566385 5.23277 -0.145777L5.01498 -0.0303224L7.68206 4.71725ZM7.14497 4.96382L4.55444 0.352492C3.7657 0.961037 1.84256 2.65497 2.07604 4.37137C2.28998 5.90572 2.56623 6.05386 3.02392 7.28582C4.05342 9.43746 5.4413 11.8221 6.5404 13.6313C7.36261 14.6654 7.30708 15.0206 8.53631 15.957C9.84638 16.9514 12.3416 16.239 13.2975 15.9157L10.707 11.3044L9.36925 12.3592C8.98536 12.6576 8.40095 12.0346 8.0477 11.4057C7.43769 10.3076 6.17545 8.073 5.70874 7.15633C5.36137 6.538 5.12511 5.71247 5.58194 5.53167L7.14497 4.96382ZM13.8558 15.7193L14.0759 15.5956C14.8024 15.1462 14.5199 14.9257 14.0407 14.0849L12.4229 11.2297C12.1181 10.7116 11.9469 10.5664 11.4088 10.848L11.1969 10.974L13.8558 15.7193Z" fill="white"/>
</g>
<defs>
<clipPath id="clip0_211_542">
<rect width="17" height="17" fill="white" transform="matrix(-1 0 0 1 17 0)"/>
</clipPath>
</defs>
</svg>
